<svg width="1584" height="970" viewBox="0 0 1584 970" fill="none" xmlns="http://www.w3.org/2000/svg">
<g filter="url(#filter0_d_79_129)">
<rect x="558.682" y="278" width="379.553" height="59.3052" rx="29.6526" fill="white"/>
<rect x="621.546" y="323.072" width="415.136" height="59.3052" rx="29.6526" fill="white"/>
<rect x="860" y="125" width="415.136" height="59.3052" rx="29.6526" fill="white"/>
<rect x="550.38" y="491.499" width="415.136" height="59.3052" rx="29.6526" fill="white"/>
<rect x="748.459" y="639.762" width="415.136" height="94.8883" rx="47.4442" fill="white"/>
<rect x="1033" y="713" width="415.136" height="94.8883" rx="47.4442" fill="white"/>
<rect x="1124" y="763" width="415.136" height="94.8883" rx="47.4442" fill="white"/>
<rect x="1146" y="485" width="415.136" height="94.8883" rx="47.4442" fill="white"/>
<rect x="1164" y="228" width="415.136" height="94.8883" rx="47.4442" fill="white"/>
<rect x="72" y="162" width="415.136" height="94.8883" rx="47.4442" fill="white"/>
<rect x="1037" y="162" width="415.136" height="94.8883" rx="47.4442" fill="white"/>
<rect x="72" y="772" width="415.136" height="94.8883" rx="47.4442" fill="white"/>
<rect x="508.866" y="537.757" width="301.27" height="42.6998" rx="21.3499" fill="white"/>
<rect x="129" y="637" width="301.27" height="42.6998" rx="21.3499" fill="white"/>
<rect x="7" y="846" width="301.27" height="42.6998" rx="21.3499" fill="white"/>
<rect x="709.318" y="713.3" width="301.27" height="42.6998" rx="21.3499" fill="white"/>
<rect x="186" y="254" width="301.27" height="42.6998" rx="21.3499" fill="white"/>
<rect x="1221" y="462" width="301.27" height="42.6998" rx="21.3499" fill="white"/>
<rect x="244" y="751" width="301.27" height="42.6998" rx="21.3499" fill="white"/>
<rect x="659.501" y="610.109" width="402.089" height="56.933" rx="28.4665" fill="white"/>
<rect x="395" y="366.958" width="593.052" height="94.8883" rx="47.4442" fill="white"/>
<rect x="503" y="867" width="593.052" height="94.8883" rx="47.4442" fill="white"/>
<rect x="883" y="39" width="593.052" height="94.8883" rx="47.4442" fill="white"/>
<rect x="29" y="95" width="593.052" height="94.8883" rx="47.4442" fill="white"/>
<circle cx="562.241" cy="653.995" r="59.3052" fill="white"/>
<circle cx="698.305" cy="201.305" r="59.3052" fill="white"/>
<circle cx="109.305" cy="367.305" r="59.3052" fill="white"/>
<circle cx="502.936" cy="499.802" r="29.6526" fill="white"/>
<circle cx="1001.1" cy="561.479" r="35.5831" fill="white"/>
<circle cx="243.583" cy="358.583" r="35.5831" fill="white"/>
<circle cx="1077.6" cy="524.117" r="21.9429" fill="white"/>
<circle cx="300.943" cy="450.943" r="21.9429" fill="white"/>
<circle cx="1055.66" cy="438.124" r="53.3747" fill="white"/>
<circle cx="354.375" cy="558.375" r="53.3747" fill="white"/>
<circle cx="762.375" cy="62.3747" r="53.3747" fill="white"/>
<circle cx="654.164" cy="712.707" r="32.6179" fill="white"/>
<circle cx="201.618" cy="461.618" r="32.6179" fill="white"/>
<rect x="555.682" y="269" width="379.553" height="59.3052" rx="29.6526" fill="#5F8BE3"/>
<rect x="618.546" y="314.072" width="415.136" height="59.3052" rx="29.6526" fill="#5F8BE3"/>
<rect x="857" y="116" width="415.136" height="59.3052" rx="29.6526" fill="#5F8BE3"/>
<rect x="547.38" y="482.499" width="415.136" height="59.3052" rx="29.6526" fill="#5F8BE3"/>
<rect x="745.459" y="630.762" width="415.136" height="94.8883" rx="47.4442" fill="#5F8BE3"/>
<rect x="1030" y="704" width="415.136" height="94.8883" rx="47.4442" fill="#5F8BE3"/>
<rect x="1121" y="754" width="415.136" height="94.8883" rx="47.4442" fill="#5F8BE3"/>
<rect x="1143" y="476" width="415.136" height="94.8883" rx="47.4442" fill="#5F8BE3"/>
<rect x="1161" y="219" width="415.136" height="94.8883" rx="47.4442" fill="#5F8BE3"/>
<rect x="69" y="153" width="415.136" height="94.8883" rx="47.4442" fill="#5F8BE3"/>
<rect x="1034" y="153" width="415.136" height="94.8883" rx="47.4442" fill="#5F8BE3"/>
<rect x="69" y="763" width="415.136" height="94.8883" rx="47.4442" fill="#5F8BE3"/>
<rect x="505.866" y="528.757" width="301.27" height="42.6998" rx="21.3499" fill="#5F8BE3"/>
<rect x="126" y="628" width="301.27" height="42.6998" rx="21.3499" fill="#5F8BE3"/>
<rect x="4" y="837" width="301.27" height="42.6998" rx="21.3499" fill="#5F8BE3"/>
<rect x="706.318" y="704.3" width="301.27" height="42.6998" rx="21.3499" fill="#5F8BE3"/>
<rect x="183" y="245" width="301.27" height="42.6998" rx="21.3499" fill="#5F8BE3"/>
<rect x="1218" y="453" width="301.27" height="42.6998" rx="21.3499" fill="#5F8BE3"/>
<rect x="241" y="742" width="301.27" height="42.6998" rx="21.3499" fill="#5F8BE3"/>
<rect x="656.501" y="601.109" width="402.089" height="56.933" rx="28.4665" fill="#5F8BE3"/>
<rect x="392" y="357.958" width="593.052" height="94.8883" rx="47.4442" fill="#5F8BE3"/>
<rect x="500" y="858" width="593.052" height="94.8883" rx="47.4442" fill="#5F8BE3"/>
<rect x="880" y="30" width="593.052" height="94.8883" rx="47.4442" fill="#5F8BE3"/>
<rect x="26" y="86" width="593.052" height="94.8883" rx="47.4442" fill="#5F8BE3"/>
<circle cx="559.241" cy="644.995" r="59.3052" fill="#5F8BE3"/>
<circle cx="695.305" cy="192.305" r="59.3052" fill="#5F8BE3"/>
<circle cx="106.305" cy="358.305" r="59.3052" fill="#5F8BE3"/>
<circle cx="499.936" cy="490.802" r="29.6526" fill="#5F8BE3"/>
<circle cx="998.099" cy="552.479" r="35.5831" fill="#5F8BE3"/>
<circle cx="240.583" cy="349.583" r="35.5831" fill="#5F8BE3"/>
<circle cx="1074.6" cy="515.117" r="21.9429" fill="#5F8BE3"/>
<circle cx="297.943" cy="441.943" r="21.9429" fill="#5F8BE3"/>
<circle cx="1052.66" cy="429.124" r="53.3747" fill="#5F8BE3"/>
<circle cx="351.375" cy="549.375" r="53.3747" fill="#5F8BE3"/>
<circle cx="759.375" cy="53.3747" r="53.3747" fill="#5F8BE3"/>
<circle cx="651.164" cy="703.707" r="32.6179" fill="#5F8BE3"/>
<circle cx="198.618" cy="452.618" r="32.6179" fill="#5F8BE3"/>
</g>
<defs>
<filter id="filter0_d_79_129" x="0" y="0" width="1583.14" height="969.888" filterUnits="userSpaceOnUse" color-interpolation-filters="sRGB">
<feFlood flood-opacity="0" result="BackgroundImageFix"/>
<feColorMatrix in="SourceAlpha" type="matrix" values="0 0 0 0 0 0 0 0 0 0 0 0 0 0 0 0 0 0 127 0" result="hardAlpha"/>
<feOffset dy="4"/>
<feGaussianBlur stdDeviation="2"/>
<feComposite in2="hardAlpha" operator="out"/>
<feColorMatrix type="matrix" values="0 0 0 0 0 0 0 0 0 0 0 0 0 0 0 0 0 0 0.25 0"/>
<feBlend mode="normal" in2="BackgroundImageFix" result="effect1_dropShadow_79_129"/>
<feBlend mode="normal" in="SourceGraphic" in2="effect1_dropShadow_79_129" result="shape"/>
</filter>
</defs>
</svg>
